<?xml version="1.0" encoding="ISO-8859-1"?>
<svg xmlns:trigo="java:fr.kp1.socleatosorigin.util.utils_xsl"
     xmlns:math="http://exslt.org/math"
     xmlns="http://www.w3.org/2000/svg"
     width="800"
     height="600"
     viewBox="0 0 1913.0200000000002 1428.02">
   <script type="text/ecmascript"> 
    function selectZone(zone) {
      top.selectionner(zone);
    }
   </script>
   <g id="echelle" fill="black" transform="translate(50,50)">
      <line x1="0" y1="0" x2="100" y2="0" stroke="black"/>
      <line x1="0" y1="0" x2="0" y2="100" stroke="black"/>
      <line x1="100" y1="-5" x2="100" y2="5"/>
      <line x1="-5" y1="100" x2="5" y2="100"/>
      <text style="text-anchor: middle" x="50" y="-20" font-size="20">1 m</text>
   </g>
   <g id="document" transform="translate(1963.5735 ,683.0404 )">
      <g id="contourZone" fill="none" stroke="#0000FF" stroke-width="1">
         <polygon stroke-width="2"
                  points="-161.55349999999999 ,6.9796,-161.55349999999999 ,-583.0404,-1033.5735 ,-583.0404,-1033.5735 ,-413.04040000000003,-1213.5735 ,-413.04040000000003,-1213.5735 ,-399.0404,-1863.5735 ,-399.0404,-1863.5735 ,6.9796,-1755.5735 ,6.9796,-1121.5735 ,6.9796,-1121.5735 ,9.9596,-1755.5735 ,9.9596,-1755.5735 ,630.9796,-1342.5535 ,630.9796,-1342.5535 ,629.9796,-943.5735 ,629.9796,-943.5735 ,644.9796,-150.5535 ,644.9796,-150.5535 ,520.9596,-161.55349999999999 ,520.9596,-161.55349999999999 ,163.9796,-150.5535 ,163.9796,-150.5535 ,65.9596,-161.55349999999999 ,65.9596,-161.55349999999999 ,10.9596,-455.5735 ,10.9596,-587.5535 ,10.9596,-587.5535 ,3.9795999999999996,-455.5735 ,3.9795999999999996,-455.5735 ,6.9796"/>
      </g>
      <g onmouseover="top.afficherInfoZone(evt, '1')"
         onmouseout="top.cacherInfoZone(evt, '1')"
         onclick="selectZone('1')"
         id="Z1"
         fill="#FFFFFF"
         stroke="#0000FF"
         stroke-width="1">
         <g id="contour_1">
            <polygon stroke-width="2"
                     points="-1013.5635000000001 ,-13.0304,-607.5635 ,-13.0304,-607.5635 ,-31.030400000000004,-607.5635 ,-563.0304,-1013.5635000000001 ,-563.0304,-1013.5635000000001 ,-393.0304"/>
         </g>
         <text style="text-anchor: middle" id="horizontalText" x="-810.5635" y="-288.0304"
               fill="#0000FF"
               stroke="none"
               font-size="50">Z1</text>
         <g id="anglePorte_1" transform="translate(-810.5635,-258.0304 ) rotate(-0)"
            fill="#FF0000"
            stroke="#FF0000">
            <line x1="-30" y1="0" x2="30" y2="0"/>
            <line x1="30" y1="0" x2="20" y2="-10"/>
            <line x1="30" y1="0" x2="20" y2="10"/>
            <polygon points="30,0,20,10,20,-10"/>
         </g>
         <g id="axesImposes_1" fill="none" stroke="#FF0000" stroke-width="1">
            <g id="axe" transform="translate(-607.5635,-13.0304)">
               <circle cx="0" cy="0" r="10"/>
               <line x1="0" y1="10" x2="0" y2="-10"/>
               <line x1="-10" y1="0" x2="10" y2="0"/>
            </g>
         </g>
         <g id="ptsCalcul_1" fill="none" stroke="#FF0000" stroke-width="1"/>
         <g id="charges_1" fill="#000000" stroke="#000000" stroke-dasharray="10 10"
            stroke-width="1"/>
         <g id="tremies_1" fill="#FF00FF" stroke="#FF00FF" stroke-width="1"/>
      </g>
      <g onmouseover="top.afficherInfoZone(evt, '2')"
         onmouseout="top.cacherInfoZone(evt, '2')"
         onclick="selectZone('2')"
         id="Z2"
         fill="#FFFFFF"
         stroke="#0000FF"
         stroke-width="1">
         <g id="contour_2">
            <polygon stroke-width="2"
                     points="-587.5635 ,-31.030400000000004,-435.56350000000003 ,-31.030400000000004,-435.56350000000003 ,-13.0304,-181.5635 ,-13.0304,-181.5635 ,-563.0304,-587.5635 ,-563.0304"/>
         </g>
         <text style="text-anchor: middle" id="horizontalText" x="-384.56350000000003"
               y="-288.0304"
               fill="#0000FF"
               stroke="none"
               font-size="50">Z2</text>
         <g id="anglePorte_2"
            transform="translate(-384.56350000000003,-258.0304 ) rotate(-180)"
            fill="#FF0000"
            stroke="#FF0000">
            <line x1="-30" y1="0" x2="30" y2="0"/>
            <line x1="30" y1="0" x2="20" y2="-10"/>
            <line x1="30" y1="0" x2="20" y2="10"/>
            <polygon points="30,0,20,10,20,-10"/>
         </g>
         <g id="axesImposes_2" fill="none" stroke="#FF0000" stroke-width="1">
            <g id="axe" transform="translate(-435.56350000000003,-13.0304)">
               <circle cx="0" cy="0" r="10"/>
               <line x1="0" y1="10" x2="0" y2="-10"/>
               <line x1="-10" y1="0" x2="10" y2="0"/>
            </g>
         </g>
         <g id="ptsCalcul_2" fill="none" stroke="#FF0000" stroke-width="1"/>
         <g id="charges_2" fill="#000000" stroke="#000000" stroke-dasharray="10 10"
            stroke-width="1"/>
         <g id="tremies_2" fill="#FF00FF" stroke="#FF00FF" stroke-width="1"/>
      </g>
      <g onmouseover="top.afficherInfoZone(evt, '3')"
         onmouseout="top.cacherInfoZone(evt, '3')"
         onclick="selectZone('3')"
         id="Z3"
         fill="#FFFFFF"
         stroke="#0000FF"
         stroke-width="1">
         <g id="contour_3">
            <polygon stroke-width="2"
                     points="-1103.5635 ,-13.0304,-1033.5635 ,-13.0304,-1033.5635 ,-393.0304,-1193.5635 ,-393.0304,-1193.5635 ,-379.0304,-1843.5635000000002 ,-379.0304,-1843.5635000000002 ,-29.0304,-1755.5735 ,-29.0304,-1121.5735 ,-29.0304,-1103.5635 ,-29.0304"/>
         </g>
         <text style="text-anchor: middle" id="horizontalText" x="-1438.5635"
               y="-203.03040000000001"
               fill="#0000FF"
               stroke="none"
               font-size="50">Z3</text>
         <g id="anglePorte_3"
            transform="translate(-1438.5635,-173.03040000000001 ) rotate(-90)"
            fill="#FF0000"
            stroke="#FF0000">
            <line x1="-30" y1="0" x2="30" y2="0"/>
            <line x1="30" y1="0" x2="20" y2="-10"/>
            <line x1="30" y1="0" x2="20" y2="10"/>
            <polygon points="30,0,20,10,20,-10"/>
         </g>
         <g id="axesImposes_3" fill="none" stroke="#FF0000" stroke-width="1">
            <g id="axe" transform="translate(-1038.5635,-203.03040000000001)">
               <circle cx="0" cy="0" r="10"/>
               <line x1="0" y1="10" x2="0" y2="-10"/>
               <line x1="-10" y1="0" x2="10" y2="0"/>
            </g>
         </g>
         <g id="ptsCalcul_3" fill="none" stroke="#FF0000" stroke-width="1"/>
         <g id="charges_3" fill="#000000" stroke="#000000" stroke-dasharray="10 10"
            stroke-width="1"/>
         <g id="tremies_3" fill="#FF00FF" stroke="#FF00FF" stroke-width="1"/>
      </g>
      <g onmouseover="top.afficherInfoZone(evt, '4')"
         onmouseout="top.cacherInfoZone(evt, '4')"
         onclick="selectZone('4')"
         id="Z4"
         fill="#FFFFFF"
         stroke="#0000FF"
         stroke-width="1">
         <g id="contour_4">
            <polygon stroke-width="2"
                     points="-1735.5635 ,610.9695999999999,-1362.5635 ,610.9695999999999,-1362.5635 ,609.9696,-1362.5635 ,44.9696,-1735.5635 ,44.9696"/>
         </g>
         <text style="text-anchor: middle" id="horizontalText" x="-1549.0635000000002"
               y="327.9696"
               fill="#0000FF"
               stroke="none"
               font-size="50">Z4</text>
         <g id="anglePorte_4"
            transform="translate(-1549.0635000000002,357.9696 ) rotate(-0)"
            fill="#FF0000"
            stroke="#FF0000">
            <line x1="-30" y1="0" x2="30" y2="0"/>
            <line x1="30" y1="0" x2="20" y2="-10"/>
            <line x1="30" y1="0" x2="20" y2="10"/>
            <polygon points="30,0,20,10,20,-10"/>
         </g>
         <g id="axesImposes_4" fill="none" stroke="#FF0000" stroke-width="1"/>
         <g id="ptsCalcul_4" fill="none" stroke="#FF0000" stroke-width="1"/>
         <g id="charges_4" fill="#000000" stroke="#000000" stroke-dasharray="10 10"
            stroke-width="1"/>
         <g id="tremies_4" fill="#FF00FF" stroke="#FF00FF" stroke-width="1"/>
      </g>
      <g onmouseover="top.afficherInfoZone(evt, '5')"
         onmouseout="top.cacherInfoZone(evt, '5')"
         onclick="selectZone('5')"
         id="Z5"
         fill="#FFFFFF"
         stroke="#0000FF"
         stroke-width="1">
         <g id="contour_5">
            <polygon stroke-width="2"
                     points="-963.5635000000001 ,479.9696,-957.5635 ,479.9696,-957.5635 ,476.96959999999996,-957.5635 ,294.9696,-957.5635 ,24.9696,-1101.5635 ,24.9696,-1101.5635 ,44.9696,-1337.5635 ,44.9696,-1337.5635 ,609.9696,-963.5635000000001 ,609.9696"/>
         </g>
         <text style="text-anchor: middle" id="horizontalText" x="-1147.5635" y="317.4696"
               fill="#0000FF"
               stroke="none"
               font-size="50">Z5</text>
         <g id="anglePorte_5" transform="translate(-1147.5635,347.4696 ) rotate(-0)"
            fill="#FF0000"
            stroke="#FF0000">
            <line x1="-30" y1="0" x2="30" y2="0"/>
            <line x1="30" y1="0" x2="20" y2="-10"/>
            <line x1="30" y1="0" x2="20" y2="10"/>
            <polygon points="30,0,20,10,20,-10"/>
         </g>
         <g id="axesImposes_5" fill="none" stroke="#FF0000" stroke-width="1"/>
         <g id="ptsCalcul_5" fill="none" stroke="#FF0000" stroke-width="1"/>
         <g id="charges_5" fill="#000000" stroke="#000000" stroke-dasharray="10 10"
            stroke-width="1"/>
         <g id="tremies_5" fill="#FF00FF" stroke="#FF00FF" stroke-width="1"/>
      </g>
      <g onmouseover="top.afficherInfoZone(evt, '6')"
         onmouseout="top.cacherInfoZone(evt, '6')"
         onclick="selectZone('6')"
         id="Z6"
         fill="#FFFFFF"
         stroke="#0000FF"
         stroke-width="1">
         <g id="contour_6">
            <polygon stroke-width="2"
                     points="-578.5635 ,409.96959999999996,-578.5635 ,624.9696,-170.5635 ,624.9696,-170.5635 ,540.9696,-181.5635 ,540.9696,-181.5635 ,143.9696,-170.5635 ,143.9696,-170.5635 ,85.9696,-181.5635 ,85.9696,-181.5635 ,30.969600000000003,-455.5735 ,30.969600000000003,-559.5635 ,30.969600000000003,-559.5635 ,409.96959999999996"/>
         </g>
         <text style="text-anchor: middle" id="horizontalText" x="-374.5635" y="327.9696"
               fill="#0000FF"
               stroke="none"
               font-size="50">Z6</text>
         <g id="anglePorte_6" transform="translate(-374.5635,357.9696 ) rotate(-180)"
            fill="#FF0000"
            stroke="#FF0000">
            <line x1="-30" y1="0" x2="30" y2="0"/>
            <line x1="30" y1="0" x2="20" y2="-10"/>
            <line x1="30" y1="0" x2="20" y2="10"/>
            <polygon points="30,0,20,10,20,-10"/>
         </g>
         <g id="axesImposes_6" fill="none" stroke="#FF0000" stroke-width="1">
            <g id="axe" transform="translate(-370.5635,35.9696)">
               <circle cx="0" cy="0" r="10"/>
               <line x1="0" y1="10" x2="0" y2="-10"/>
               <line x1="-10" y1="0" x2="10" y2="0"/>
            </g>
         </g>
         <g id="ptsCalcul_6" fill="none" stroke="#FF0000" stroke-width="1"/>
         <g id="charges_6" fill="#000000" stroke="#000000" stroke-dasharray="10 10"
            stroke-width="1"/>
         <g id="tremies_6" fill="#FF00FF" stroke="#FF00FF" stroke-width="1"/>
      </g>
      <g onmouseover="top.afficherInfoZone(evt, '7')"
         onmouseout="top.cacherInfoZone(evt, '7')"
         onclick="selectZone('7')"
         id="Z7"
         fill="#FFFFFF"
         stroke="#0000FF"
         stroke-width="1">
         <g id="contour_7">
            <polygon stroke-width="2"
                     points="-607.5635 ,394.9696,-607.5635 ,294.9696,-671.5635 ,294.9696,-917.5635 ,294.9696,-933.5635 ,294.9696,-933.5635 ,476.96959999999996,-923.5635 ,476.96959999999996,-923.5635 ,644.9696,-598.5635 ,644.9696,-598.5635 ,624.9696,-598.5635 ,409.96959999999996,-598.5635 ,394.9696"/>
         </g>
         <text style="text-anchor: middle" id="horizontalText" x="-766.0635" y="469.9696"
               fill="#0000FF"
               stroke="none"
               font-size="50">Z7</text>
         <g id="anglePorte_7" transform="translate(-766.0635,499.9696 ) rotate(-0)"
            fill="#FF0000"
            stroke="#FF0000">
            <line x1="-30" y1="0" x2="30" y2="0"/>
            <line x1="30" y1="0" x2="20" y2="-10"/>
            <line x1="30" y1="0" x2="20" y2="10"/>
            <polygon points="30,0,20,10,20,-10"/>
         </g>
         <g id="axesImposes_7" fill="none" stroke="#FF0000" stroke-width="1">
            <g id="axe" transform="translate(-761.0635,639.9696)">
               <circle cx="0" cy="0" r="10"/>
               <line x1="0" y1="10" x2="0" y2="-10"/>
               <line x1="-10" y1="0" x2="10" y2="0"/>
            </g>
         </g>
         <g id="ptsCalcul_7" fill="none" stroke="#FF0000" stroke-width="1"/>
         <g id="charges_7" fill="#000000" stroke="#000000" stroke-dasharray="10 10"
            stroke-width="1"/>
         <g id="tremies_7" fill="#FF00FF" stroke="#FF00FF" stroke-width="1"/>
      </g>
      <g onmouseover="top.afficherInfoZone(evt, '8')"
         onmouseout="top.cacherInfoZone(evt, '8')"
         onclick="selectZone('8')"
         id="Z8"
         fill="#FFFFFF"
         stroke="#0000FF"
         stroke-width="1">
         <g id="contour_8">
            <polygon stroke-width="2"
                     points="-671.5635 ,264.9696,-607.5635 ,264.9696,-607.5635 ,24.9696,-917.5635 ,24.9696,-917.5635 ,277.9696,-671.5635 ,277.9696"/>
         </g>
         <text style="text-anchor: middle" id="horizontalText" x="-762.5635" y="151.4696"
               fill="#0000FF"
               stroke="none"
               font-size="50">Z8</text>
         <g id="anglePorte_8" transform="translate(-762.5635,181.4696 ) rotate(-90)"
            fill="#FF0000"
            stroke="#FF0000">
            <line x1="-30" y1="0" x2="30" y2="0"/>
            <line x1="30" y1="0" x2="20" y2="-10"/>
            <line x1="30" y1="0" x2="20" y2="10"/>
            <polygon points="30,0,20,10,20,-10"/>
         </g>
         <g id="axesImposes_8" fill="none" stroke="#FF0000" stroke-width="1"/>
         <g id="ptsCalcul_8" fill="none" stroke="#FF0000" stroke-width="1"/>
         <g id="charges_8" fill="#000000" stroke="#000000" stroke-dasharray="10 10"
            stroke-width="1"/>
         <g id="tremies_8" fill="#FF00FF" stroke="#FF00FF" stroke-width="1"/>
      </g>
      <g id="composants" fill="#000000" stroke="#000000" stroke-width="1">
         <g id="composant_4" transform="rotate(-90,-1023.5742,-5.1475)">
            <rect id="rectangle" onclick="top.selectMulti('4')" x="-1023.5742" y="-15.1475"
                  height="20"
                  width="390"
                  fill="#FFCC33"/>
            <text id="horizontalText" stroke-dasharray="none" style="text-anchor: middle"
                  x="-828.5742"
                  y="2.8525"
                  font-size="20"
                  stroke="none">PSS-(L=3.90m)</text>
         </g>
         <g id="composant_5" transform="rotate(90,-598.4242,-566.5105)">
            <rect id="rectangle" onclick="top.selectMulti('5')" x="-598.4242" y="-576.5105"
                  height="20"
                  width="540"
                  fill="#FFCC33"/>
            <text id="horizontalText" stroke-dasharray="none" style="text-anchor: middle"
                  x="-328.42420000000004"
                  y="-558.5105"
                  font-size="20"
                  stroke="none">PSS-(L=5.40m)</text>
         </g>
      </g>
      <g id="composants" fill="#000000" stroke="#000000" stroke-width="1"/>
   </g>
</svg>