<svg xmlns:trigo="java:fr.kp1.socleatosorigin.util.utils_xsl"
     xmlns:math="http://exslt.org/math"
     xmlns="http://www.w3.org/2000/svg"
     width="800"
     height="600"
     viewBox="0 0 1913.02 1428.02">
   <g id="echelle" fill="black" transform="translate(50,50)">
      <line x1="0" y1="0" x2="100" y2="0" stroke="black"/>
      <line x1="0" y1="0" x2="0" y2="100" stroke="black"/>
      <line x1="100" y1="-5" x2="100" y2="5"/>
      <line x1="-5" y1="100" x2="5" y2="100"/>
      <text style="text-anchor: middle" x="50" y="-20" font-size="20">1 m</text>
   </g>
   <g id="document" transform="translate(1963.57,683.04)" fill="white"  stroke-width="2">
        <path id="contourZone" fill="lightgray" stroke="darkgray"  
                  d="M-161.55,6.98 -161.55,-583.04 -1033.57,-583.04 -1033.57,-413.04 -1213.57,-413.04 -1213.57,-399.04 -1863.57,-399.04 -1863.57,6.98 -1755.57,6.98 -1121.57,6.98 -1121.57,9.96 -1755.57,9.96 -1755.57,630.98 -1342.55,630.98 -1342.55,629.98 -943.57,629.98 -943.57,644.98 -150.55,644.98 -150.55,520.96 -161.55,520.96 -161.55,163.98 -150.55,163.98 -150.55,65.96 -161.55,65.96 -161.55,10.96 -455.57,10.96 -587.55,10.96 -587.55,3.98 -455.57,3.98 -455.57,6.98z" />
        <path id="Z1" stroke="darkgray"
                 d="M-1013.56,-13.03,-607.56,-13.03,-607.56,-31.03,-607.56,-563.03,-1013.56,-563.03,-1013.56,-393.03z"/>
         <text style="text-anchor: middle" id="horizontalText" x="-810.56" y="-288.03"
               fill="blue"
               stroke="none"
               font-size="50">Z1</text>
         <g id="anglePorte_1" transform="translate(-810.56,-258.03 ) rotate(-0)"
            
            stroke="red">
            <line x1="-30" y1="0" x2="30" y2="0"/>
            <line x1="30" y1="0" x2="20" y2="-10"/>
            <line x1="30" y1="0" x2="20" y2="10"/>
            <polygon fill="red" points="30,0,20,10,20,-10"/>
         </g>
        <path id="Z2" stroke="darkgray" d="M-587.56,-31.03,-435.56,-31.03,-435.56,-13.03,-181.56,-13.03,-181.56,-563.03,-587.56,-563.03z"/>
         <text style="text-anchor: middle" id="horizontalText" x="-384.56"
               y="-288.03"
               fill="blue"
               stroke="none"
               font-size="50">Z2</text>
         <g id="anglePorte_2"
            transform="translate(-384.56,-258.03 ) rotate(-180)"
            
            stroke="red">
            <line x1="-30" y1="0" x2="30" y2="0"/>
            <line x1="30" y1="0" x2="20" y2="-10"/>
            <line x1="30" y1="0" x2="20" y2="10"/>
            <polygon points="30,0,20,10,20,-10"/>
         </g>
      <g id="Z3"

         stroke="darkgray"
         >
         <g id="contour_3">
            <polygon 
                     points="-1103.56,-13.03,-1033.56,-13.03,-1033.56,-393.03,-1193.56,-393.03,-1193.56,-379.03,-1843.56,-379.03,-1843.56,-29.03,-1755.57,-29.03,-1121.57,-29.03,-1103.56,-29.03"/>
         </g>
         <text style="text-anchor: middle" id="horizontalText" x="-1438.56"
               y="-203.03"
               fill="blue"
               stroke="none"
               font-size="50">Z3</text>
         <g id="anglePorte_3"
            transform="translate(-1438.56,-173.03 ) rotate(-90)"
            
            stroke="red">
            <line x1="-30" y1="0" x2="30" y2="0"/>
            <line x1="30" y1="0" x2="20" y2="-10"/>
            <line x1="30" y1="0" x2="20" y2="10"/>
            <polygon points="30,0,20,10,20,-10"/>
         </g>
      </g>
      <g id="Z4"

         stroke="darkgray"
         >
         <g id="contour_4">
            <polygon 
                     points="-1735.56,610.97,-1362.56,610.97,-1362.56,609.97,-1362.56,44.97,-1735.56,44.97"/>
         </g>
         <text style="text-anchor: middle" id="horizontalText" x="-1549.06"
               y="327.97"
               fill="blue"
               stroke="none"
               font-size="50">Z4</text>
         <g id="anglePorte_4"
            transform="translate(-1549.06,357.97) rotate(-0)"
            
            stroke="red">
            <line x1="-30" y1="0" x2="30" y2="0"/>
            <line x1="30" y1="0" x2="20" y2="-10"/>
            <line x1="30" y1="0" x2="20" y2="10"/>
            <polygon points="30,0,20,10,20,-10"/>
         </g>
      </g>
      <g id="Z5"

         stroke="darkgray"
         >
         <g id="contour_5">
            <polygon 
                     points="-963.56,479.97,-957.56,479.97,-957.56,476.98,-957.56,294.97,-957.56,24.97,-1101.56,24.97,-1101.56,44.97,-1337.56,44.97,-1337.56,609.97,-963.56,609.97"/>
         </g>
         <text style="text-anchor: middle" id="horizontalText" x="-1147.56" y="317.47"
               fill="blue"
               stroke="none"
               font-size="50">Z5</text>
         <g id="anglePorte_5" transform="translate(-1147.56,347.47) rotate(-0)"
            
            stroke="red">
            <line x1="-30" y1="0" x2="30" y2="0"/>
            <line x1="30" y1="0" x2="20" y2="-10"/>
            <line x1="30" y1="0" x2="20" y2="10"/>
            <polygon points="30,0,20,10,20,-10"/>
         </g>
      </g>
      <g id="Z6"

         stroke="darkgray"
         >
         <g id="contour_6">
            <polygon 
                     points="-578.56,409.98,-578.56,624.97,-170.56,624.97,-170.56,540.97,-181.56,540.97,-181.56,143.97,-170.56,143.97,-170.56,85.97,-181.56,85.97,-181.56,30.97,-455.57,30.97,-559.56,30.97,-559.56,409.98"/>
         </g>
         <text style="text-anchor: middle" id="horizontalText" x="-374.56" y="327.97"
               fill="blue"
               stroke="none"
               font-size="50">Z6</text>
         <g id="anglePorte_6" transform="translate(-374.56,357.97) rotate(-180)"
            
            stroke="red">
            <line x1="-30" y1="0" x2="30" y2="0"/>
            <line x1="30" y1="0" x2="20" y2="-10"/>
            <line x1="30" y1="0" x2="20" y2="10"/>
            <polygon points="30,0,20,10,20,-10"/>
         </g>
      </g>
      <g id="Z7"

         stroke="darkgray"
         >
         <g id="contour_7">
            <polygon 
                     points="-607.56,394.97,-607.56,294.97,-671.56,294.97,-917.56,294.97,-933.56,294.97,-933.56,476.98,-923.56,476.98,-923.56,644.97,-598.56,644.97,-598.56,624.97,-598.56,409.98,-598.56,394.97"/>
         </g>
         <text style="text-anchor: middle" id="horizontalText" x="-766.06" y="469.97"
               fill="blue"
               stroke="none"
               font-size="50">Z7</text>
         <g id="anglePorte_7" transform="translate(-766.06,499.97) rotate(-0)"
            
            stroke="red">
            <line x1="-30" y1="0" x2="30" y2="0"/>
            <line x1="30" y1="0" x2="20" y2="-10"/>
            <line x1="30" y1="0" x2="20" y2="10"/>
            <polygon points="30,0,20,10,20,-10"/>
         </g>
      </g>
      <g id="Z8"

         stroke="darkgray"
         >
         <g id="contour_8">
            <polygon 
                     points="-671.56,264.97,-607.56,264.97,-607.56,24.97,-917.56,24.97,-917.56,277.97,-671.56,277.97"/>
         </g>
         <text style="text-anchor: middle" id="horizontalText" x="-762.56" y="151.47"
               fill="blue"
               stroke="none"
               font-size="50">Z8</text>
         <g id="anglePorte_8" transform="translate(-762.56,181.47) rotate(-90)"
            
            stroke="red">
            <line x1="-30" y1="0" x2="30" y2="0"/>
            <line x1="30" y1="0" x2="20" y2="-10"/>
            <line x1="30" y1="0" x2="20" y2="10"/>
            <polygon points="30,0,20,10,20,-10"/>
         </g>
      </g>
      <g id="composants" fill="#000000" stroke="#000000" >
         <g id="composant_4" transform="rotate(-90,-1023.5742,-5.1475)">
            <rect id="rectangle" x="-1023.5742" y="-15.1475"
                  height="20"
                  width="390"
                  fill="#FFCC33"/>
            <text id="horizontalText" stroke-dasharray="none" style="text-anchor: middle"
                  x="-828.57"
                  y="2.85"
                  font-size="20"
                  stroke="none">PSS-(L=3.90m)</text>
         </g>
         <g id="composant_5" transform="rotate(90,-598.4242,-566.51)">
            <rect id="rectangle" x="-598.4242" y="-576.51"
                  height="20"
                  width="540"
                  fill="#FFCC33"/>
            <text id="horizontalText" stroke-dasharray="none" style="text-anchor: middle"
                  x="-328.42"
                  y="-558.51"
                  font-size="20"
                  stroke="none">PSS-(L=5.40m)</text>
         </g>
      </g>
   </g>
</svg>